TITLE ""
FILE "DISC2Track21.mp3" MP3
  TRACK 01 AUDIO
    TITLE "DISC2Track21_01"
    INDEX 01 00:00:00
  TRACK 02 AUDIO
    TITLE "DISC2Track21_02"
    INDEX 01 00:01:70
  TRACK 03 AUDIO
    TITLE "DISC2Track21_03"
    INDEX 01 00:02:03
  TRACK 04 AUDIO
    TITLE "DISC2Track21_04"
    INDEX 01 00:05:41
  TRACK 05 AUDIO
    TITLE "DISC2Track21_05"
    INDEX 01 00:09:45
  TRACK 06 AUDIO
    TITLE "DISC2Track21_06"
    INDEX 01 00:13:09
  TRACK 07 AUDIO
    TITLE "DISC2Track21_07"
    INDEX 01 00:13:29
  TRACK 08 AUDIO
    TITLE "DISC2Track21_08"
    INDEX 01 00:17:07
  TRACK 09 AUDIO
    TITLE "DISC2Track21_09"
    INDEX 01 00:20:52
  TRACK 10 AUDIO
    TITLE "DISC2Track21_10"
    INDEX 01 00:23:64
  TRACK 11 AUDIO
    TITLE "DISC2Track21_11"
    INDEX 01 00:24:01
  TRACK 12 AUDIO
    TITLE "DISC2Track21_12"
    INDEX 01 00:28:44
  TRACK 13 AUDIO
    TITLE "DISC2Track21_13"
    INDEX 01 00:33:10
  TRACK 14 AUDIO
    TITLE "DISC2Track21_14"
    INDEX 01 00:37:23
  TRACK 15 AUDIO
    TITLE "DISC2Track21_15"
    INDEX 01 00:37:31
  TRACK 16 AUDIO
    TITLE "DISC2Track21_16"
    INDEX 01 00:41:68
  TRACK 17 AUDIO
    TITLE "DISC2Track21_17"
    INDEX 01 00:45:56
  TRACK 18 AUDIO
    TITLE "DISC2Track21_18"
    INDEX 01 00:49:26
  TRACK 19 AUDIO
    TITLE "DISC2Track21_19"
    INDEX 01 00:49:42
  TRACK 20 AUDIO
    TITLE "DISC2Track21_20"
    INDEX 01 00:53:10
  TRACK 21 AUDIO
    TITLE "DISC2Track21_21"
    INDEX 01 00:56:36
  TRACK 22 AUDIO
    TITLE "DISC2Track21_22"
    INDEX 01 00:59:42
  TRACK 23 AUDIO
    TITLE "DISC2Track21_23"
    INDEX 01 00:59:54
  TRACK 24 AUDIO
    TITLE "DISC2Track21_24"
    INDEX 01 01:03:13
  TRACK 25 AUDIO
    TITLE "DISC2Track21_25"
    INDEX 01 01:06:31
  TRACK 26 AUDIO
    TITLE "DISC2Track21_26"
    INDEX 01 01:09:13
  TRACK 27 AUDIO
    TITLE "DISC2Track21_27"
    INDEX 01 01:09:29
  TRACK 28 AUDIO
    TITLE "DISC2Track21_28"
    INDEX 01 01:10:74
  TRACK 29 AUDIO
    TITLE "DISC2Track21_29"
    INDEX 01 01:13:01
  TRACK 30 AUDIO
    TITLE "DISC2Track21_30"
    INDEX 01 01:14:58
  TRACK 31 AUDIO
    TITLE "DISC2Track21_31"
    INDEX 01 01:14:73
  TRACK 32 AUDIO
    TITLE "DISC2Track21_32"
    INDEX 01 01:18:24
  TRACK 33 AUDIO
    TITLE "DISC2Track21_33"
    INDEX 01 01:21:60
  TRACK 34 AUDIO
    TITLE "DISC2Track21_34"
    INDEX 01 01:24:64
  TRACK 35 AUDIO
    TITLE "DISC2Track21_35"
    INDEX 01 01:25:03
  TRACK 36 AUDIO
    TITLE "DISC2Track21_36"
    INDEX 01 01:27:64
  TRACK 37 AUDIO
    TITLE "DISC2Track21_37"
    INDEX 01 01:30:37
  TRACK 38 AUDIO
    TITLE "DISC2Track21_38"
    INDEX 01 01:32:52
  TRACK 39 AUDIO
    TITLE "DISC2Track21_39"
    INDEX 01 01:32:65
  TRACK 40 AUDIO
    TITLE "DISC2Track21_40"
    INDEX 01 01:36:08
  TRACK 41 AUDIO
    TITLE "DISC2Track21_41"
    INDEX 01 01:38:68
  TRACK 42 AUDIO
    TITLE "DISC2Track21_42"
    INDEX 01 01:41:33
  TRACK 43 AUDIO
    TITLE "DISC2Track21_43"
    INDEX 01 01:41:43
  TRACK 44 AUDIO
    TITLE "DISC2Track21_44"
    INDEX 01 01:44:49
  TRACK 45 AUDIO
    TITLE "DISC2Track21_45"
    INDEX 01 01:47:43
  TRACK 46 AUDIO
    TITLE "DISC2Track21_46"
    INDEX 01 01:50:06
  TRACK 47 AUDIO
    TITLE "DISC2Track21_47"
    INDEX 01 01:50:18
  TRACK 48 AUDIO
    TITLE "DISC2Track21_48"
    INDEX 01 01:52:49
  TRACK 49 AUDIO
    TITLE "DISC2Track21_49"
    INDEX 01 01:54:69
  TRACK 50 AUDIO
    TITLE "DISC2Track21_50"
    INDEX 01 01:56:56
